<?xml version="1.0" encoding="UTF-8" standalone="no"?>
<svg
   xmlns:dc="http://purl.org/dc/elements/1.1/"
   xmlns:cc="http://creativecommons.org/ns#"
   xmlns:rdf="http://www.w3.org/1999/02/22-rdf-syntax-ns#"
   xmlns:svg="http://www.w3.org/2000/svg"
   xmlns="http://www.w3.org/2000/svg"
   id="svg60"
   version="1.1"
   viewBox="0 0 119.99992 72.999681"
   height="275.9043"
   width="453.543">
  <defs
     id="defs54" />
  <metadata
     id="metadata57">
    <rdf:RDF>
      <cc:Work
         rdf:about="">
        <dc:format>image/svg+xml</dc:format>
        <dc:type
           rdf:resource="http://purl.org/dc/dcmitype/StillImage" />
        <dc:title></dc:title>
      </cc:Work>
    </rdf:RDF>
  </metadata>
  <g
     transform="translate(-36.761945,-90.500159)"
     id="layer1">
    <path
       id="path10-1"
       style="fill:#000000;fill-rule:evenodd;stroke-width:0.412118"
       d="M 96.761909,90.500159 A 59.999999,36.500001 0 0 0 36.761945,126.99975 59.999999,36.500001 0 0 0 96.761909,163.49984 59.999999,36.500001 0 0 0 156.76186,126.99975 59.999999,36.500001 0 0 0 96.761909,90.500159 Z m -6.097309,6.01565 a 32.000005,21.5 68.032104 0 1 26.26765,22.704051 32.000005,21.5 68.032104 0 1 -7.96851,37.71966 32.000005,21.5 68.032104 0 1 -31.909669,-21.63381 32.000005,21.5 68.032104 0 1 7.96798,-37.719161 32.000005,21.5 68.032104 0 1 5.642549,-1.07074 z" />
  </g>
</svg>
